<?xml version="1.0" encoding="UTF-8" standalone="no"?>
<!DOCTYPE svg PUBLIC "-//W3C//DTD SVG 1.1//EN" "http://www.w3.org/Graphics/SVG/1.1/DTD/svg11.dtd">
<svg width="100%" height="100%" viewBox="0 0 332 75" version="1.1" xmlns="http://www.w3.org/2000/svg" xmlns:xlink="http://www.w3.org/1999/xlink" xml:space="preserve" xmlns:serif="http://www.serif.com/" style="fill-rule:evenodd;clip-rule:evenodd;stroke-linejoin:round;stroke-miterlimit:2;">
    <g transform="matrix(1,0,0,1,-3.73584,-7.4836)">
        <g transform="matrix(1,0,0,1,30.0317,-9.444)">
            <g transform="matrix(1,0,0,1,-79.8428,29.3894)">
                <g transform="matrix(96,0,0,96,46.8438,60.4756)">
                    <path d="M0.371,-0.344C0.396,-0.338 0.418,-0.325 0.436,-0.307C0.454,-0.289 0.476,-0.253 0.503,-0.199L0.602,-0L0.496,-0L0.409,-0.184C0.384,-0.236 0.362,-0.27 0.342,-0.285C0.322,-0.301 0.295,-0.308 0.263,-0.308L0.169,-0.308L0.169,-0L0.07,-0L0.07,-0.729L0.273,-0.729C0.353,-0.729 0.414,-0.711 0.457,-0.675C0.5,-0.639 0.521,-0.586 0.521,-0.518C0.521,-0.47 0.508,-0.431 0.482,-0.4C0.455,-0.37 0.419,-0.351 0.371,-0.344ZM0.169,-0.648L0.169,-0.389L0.277,-0.389C0.324,-0.389 0.359,-0.4 0.382,-0.421C0.405,-0.442 0.417,-0.474 0.417,-0.518C0.417,-0.56 0.405,-0.592 0.38,-0.615C0.356,-0.637 0.32,-0.648 0.273,-0.648L0.169,-0.648Z" style="fill:white;fill-rule:nonzero;"/>
                </g>
                <g transform="matrix(96,0,0,96,104.641,60.4756)">
                    <path d="M0.547,-0.318L0.547,-0.274L0.158,-0.274L0.158,-0.271C0.155,-0.197 0.169,-0.143 0.2,-0.111C0.232,-0.078 0.275,-0.062 0.332,-0.062C0.361,-0.062 0.391,-0.067 0.422,-0.076C0.453,-0.085 0.486,-0.099 0.522,-0.117L0.522,-0.028C0.488,-0.014 0.455,-0.003 0.423,0.004C0.391,0.011 0.361,0.014 0.331,0.014C0.246,0.014 0.18,-0.011 0.132,-0.062C0.084,-0.113 0.06,-0.183 0.06,-0.273C0.06,-0.36 0.083,-0.43 0.13,-0.482C0.177,-0.534 0.24,-0.56 0.318,-0.56C0.388,-0.56 0.442,-0.536 0.483,-0.489C0.523,-0.442 0.544,-0.385 0.547,-0.318ZM0.457,-0.345C0.453,-0.382 0.439,-0.415 0.416,-0.443C0.392,-0.47 0.358,-0.484 0.314,-0.484C0.271,-0.484 0.235,-0.47 0.207,-0.441C0.179,-0.412 0.164,-0.38 0.161,-0.344L0.457,-0.345Z" style="fill:white;fill-rule:nonzero;"/>
                </g>
                <g transform="matrix(96,0,0,96,162.438,60.4756)">
                    <path d="M0.33,-0.491C0.341,-0.515 0.355,-0.532 0.372,-0.543C0.389,-0.554 0.41,-0.56 0.434,-0.56C0.478,-0.56 0.509,-0.543 0.527,-0.509C0.545,-0.475 0.554,-0.411 0.554,-0.317L0.554,-0L0.472,-0L0.472,-0.313C0.472,-0.39 0.468,-0.438 0.459,-0.457C0.451,-0.476 0.435,-0.485 0.412,-0.485C0.386,-0.485 0.368,-0.475 0.359,-0.455C0.349,-0.435 0.344,-0.388 0.344,-0.313L0.344,-0L0.262,-0L0.262,-0.313C0.262,-0.391 0.258,-0.439 0.248,-0.458C0.239,-0.476 0.222,-0.485 0.198,-0.485C0.174,-0.485 0.158,-0.475 0.149,-0.455C0.139,-0.435 0.135,-0.388 0.135,-0.313L0.135,-0L0.053,-0L0.053,-0.547L0.135,-0.547L0.135,-0.5C0.146,-0.52 0.159,-0.534 0.175,-0.545C0.191,-0.555 0.209,-0.56 0.23,-0.56C0.255,-0.56 0.275,-0.554 0.292,-0.543C0.308,-0.532 0.321,-0.514 0.33,-0.491Z" style="fill:white;fill-rule:nonzero;"/>
                </g>
                <g transform="matrix(96,0,0,96,220.234,60.4756)">
                    <path d="M0.154,-0.545L0.384,-0.545L0.384,-0.07L0.563,-0.07L0.563,-0L0.116,-0L0.116,-0.07L0.294,-0.07L0.294,-0.475L0.154,-0.475L0.154,-0.545ZM0.294,-0.757L0.384,-0.757L0.384,-0.644L0.294,-0.644L0.294,-0.757Z" style="fill:white;fill-rule:nonzero;"/>
                </g>
                <g transform="matrix(96,0,0,96,278.031,60.4756)">
                    <path d="M0.513,-0.339L0.513,-0L0.423,-0L0.423,-0.339C0.423,-0.388 0.414,-0.424 0.397,-0.447C0.38,-0.47 0.353,-0.482 0.316,-0.482C0.274,-0.482 0.242,-0.467 0.219,-0.437C0.196,-0.407 0.185,-0.365 0.185,-0.309L0.185,-0L0.095,-0L0.095,-0.547L0.185,-0.547L0.185,-0.465C0.201,-0.496 0.223,-0.52 0.25,-0.536C0.277,-0.552 0.31,-0.56 0.347,-0.56C0.403,-0.56 0.444,-0.542 0.472,-0.505C0.499,-0.469 0.513,-0.413 0.513,-0.339Z" style="fill:white;fill-rule:nonzero;"/>
                </g>
                <g transform="matrix(96,0,0,96,335.828,60.4756)">
                    <path d="M0.419,-0.477L0.419,-0.76L0.509,-0.76L0.509,-0L0.419,-0L0.419,-0.069C0.404,-0.042 0.384,-0.021 0.359,-0.007C0.334,0.007 0.306,0.014 0.273,0.014C0.207,0.014 0.155,-0.011 0.117,-0.063C0.079,-0.114 0.06,-0.185 0.06,-0.275C0.06,-0.364 0.079,-0.434 0.117,-0.484C0.155,-0.535 0.207,-0.56 0.273,-0.56C0.306,-0.56 0.335,-0.553 0.36,-0.539C0.385,-0.525 0.405,-0.504 0.419,-0.477ZM0.155,-0.273C0.155,-0.203 0.166,-0.151 0.188,-0.115C0.21,-0.08 0.243,-0.062 0.286,-0.062C0.329,-0.062 0.362,-0.08 0.385,-0.116C0.408,-0.152 0.419,-0.204 0.419,-0.273C0.419,-0.342 0.408,-0.395 0.385,-0.43C0.362,-0.466 0.329,-0.484 0.286,-0.484C0.243,-0.484 0.21,-0.466 0.188,-0.431C0.166,-0.395 0.155,-0.343 0.155,-0.273Z" style="fill:white;fill-rule:nonzero;"/>
                </g>
            </g>
        </g>
    </g>
</svg>
